<?xml version="1.0" encoding="UTF-8" standalone="no"?>
<svg
   width="483.99155pt"
   height="280.98221pt"
   viewBox="0 0 483.99154 280.9822"
   version="1.1"
   id="svg77"
   sodipodi:docname="workflow_dag.svg"
   inkscape:version="1.2.2 (732a01da63, 2022-12-09)"
   xmlns:inkscape="http://www.inkscape.org/namespaces/inkscape"
   xmlns:sodipodi="http://sodipodi.sourceforge.net/DTD/sodipodi-0.dtd"
   xmlns="http://www.w3.org/2000/svg"
   xmlns:svg="http://www.w3.org/2000/svg"
   xmlns:rdf="http://www.w3.org/1999/02/22-rdf-syntax-ns#"
   xmlns:cc="http://creativecommons.org/ns#"
   xmlns:dc="http://purl.org/dc/elements/1.1/">
  <metadata
     id="metadata83">
    <rdf:RDF>
      <cc:Work
         rdf:about="">
        <dc:format>image/svg+xml</dc:format>
        <dc:type
           rdf:resource="http://purl.org/dc/dcmitype/StillImage" />
      </cc:Work>
    </rdf:RDF>
  </metadata>
  <defs
     id="defs81">
    <linearGradient
       id="gradient"
       gradientUnits="userSpaceOnUse"
       x1="24"
       x2="246"
       y1="238"
       y2="16">
      <stop
         offset="0%"
         stop-color="#0a00b2"
         id="stop1915" />
      <stop
         offset="50%"
         stop-color="#ff0000"
         id="stop1917" />
      <stop
         offset="100%"
         stop-color="#fffc00"
         id="stop1919" />
    </linearGradient>
    <style
       id="style1922">
			.wordmark {
				fill: #000000;
			}
			.petal {
				opacity: 0.65;
			}
			.petals {
				fill: url(#gradient);
			}
		</style>
  </defs>
  <sodipodi:namedview
     pagecolor="#ffffff"
     bordercolor="#666666"
     borderopacity="1"
     objecttolerance="10"
     gridtolerance="10"
     guidetolerance="10"
     inkscape:pageopacity="0"
     inkscape:pageshadow="2"
     inkscape:window-width="2560"
     inkscape:window-height="1351"
     id="namedview79"
     showgrid="false"
     showguides="false"
     inkscape:zoom="2.056049"
     inkscape:cx="298.14465"
     inkscape:cy="207.92306"
     inkscape:window-x="-9"
     inkscape:window-y="-9"
     inkscape:window-maximized="1"
     inkscape:current-layer="graph0"
     fit-margin-top="0"
     fit-margin-left="0"
     fit-margin-right="0"
     fit-margin-bottom="0"
     inkscape:document-rotation="0"
     inkscape:showpageshadow="0"
     inkscape:pagecheckerboard="0"
     inkscape:deskcolor="#d1d1d1"
     inkscape:document-units="pt" />
  <g
     id="graph0"
     class="graph"
     transform="translate(-309.45866,266.77593)">
    <rect
       style="fill:#ecf7ff;fill-opacity:1;stroke:#0020ff;stroke-width:1.70768;stroke-miterlimit:4;stroke-dasharray:none;stop-color:#000000"
       id="rect2691"
       width="482.28387"
       height="279.27454"
       x="310.3125"
       y="-265.92209"
       rx="0.46499094"
       ry="0.63054866" />
    <title
       id="title2">snakemake_dag</title>
    <!-- 0 -->
    <!-- 1 -->
    <!-- 1&#45;&gt;0 -->
    <!-- 4 -->
    <!-- 1&#45;&gt;4 -->
    <!-- 2 -->
    <!-- 2&#45;&gt;1 -->
    <!-- 3 -->
    <!-- 3&#45;&gt;0 -->
    <!-- 4&#45;&gt;0 -->
    <g
       id="node2-7"
       class="node"
       transform="translate(620.2463,3.6319159)">
      <title
         id="title13-1">1</title>
      <path
         fill="none"
         stroke="#56a9d8"
         stroke-width="2"
         d="m 126.25,-180 c 0,0 -104.5,0 -104.5,0 -6,0 -12,6 -12,12 0,0 0,12 0,12 0,6 6,12 12,12 0,0 104.5,0 104.5,0 6,0 12,-6 12,-12 0,0 0,-12 0,-12 0,-6 -6,-12 -12,-12"
         id="path15-7"
         style="fill:#ffffff;fill-opacity:0.691429;stroke:#56d8a9;stroke-width:1.25025;stroke-miterlimit:4;stroke-dasharray:0.625125, 0.625125;stroke-dashoffset:0;stroke-opacity:1" />
      <text
         text-anchor="middle"
         x="74"
         y="-159.5"
         font-family="sans"
         font-size="10px"
         id="text17-5">wiki/Template:Convert</text>
    </g>
    <path
       fill="none"
       stroke="#59d856"
       stroke-width="2"
       d="m 500.19449,-32.311527 c 0,0 -70.5,0 -70.5,0 -6,0 -12,6 -12,12 0,0 0,12.0000004 0,12.0000004 0,6 6,12 12,12 0,0 70.5,0 70.5,0 6,0 12,-6 12,-12 0,0 0,-12.0000004 0,-12.0000004 0,-6 -6,-12 -12,-12"
       id="path8-2"
       style="fill:#ffffff;fill-opacity:1" />
    <text
       text-anchor="middle"
       x="464.94449"
       y="-11.811526"
       font-family="sans"
       font-size="10px"
       id="text10-5">create_datasets</text>
    <g
       id="node2-3"
       class="node"
       transform="translate(342.94449,3.6884734)">
      <title
         id="title13-9">1</title>
      <path
         fill="none"
         stroke="#56d8a9"
         stroke-width="2"
         d="m 250.25,-180 c 0,0 -104.5,0 -104.5,0 -6,0 -12,6 -12,12 0,0 0,12 0,12 0,6 6,12 12,12 0,0 104.5,0 104.5,0 6,0 12,-6 12,-12 0,0 0,-12 0,-12 0,-6 -6,-12 -12,-12"
         id="path15-1"
         style="fill:#ffffff;fill-opacity:1" />
      <text
         text-anchor="middle"
         x="198"
         y="-159.5"
         font-family="sans"
         font-size="10px"
         id="text17-3">parse_wikipedia_dump</text>
    </g>
    <g
       id="edge1-4"
       class="edge"
       transform="translate(342.94449,3.6884734)">
      <title
         id="title20-9">1-&gt;0</title>
      <path
         fill="none"
         stroke="#808080"
         stroke-width="2"
         d="m 200.331,-143.777 c 1.704,18.827 1.923,49.3031 -10.331,71.777 -6.509,11.9381 -16.962,22.0775 -27.739,30.1915"
         id="path22-4"
         style="stroke:#000000;stroke-opacity:1" />
      <polygon
         fill="#808080"
         stroke="#808080"
         points="160.177,-44.6217 164.207,-38.8984 154.016,-36.0022 "
         id="polygon24-5"
         style="fill:#000000;fill-opacity:1;stroke:#000000;stroke-opacity:1" />
    </g>
    <path
       fill="none"
       stroke="#d85656"
       stroke-width="2"
       d="m 512.19449,-104.31153 c 0,0 -94.5,0 -94.5,0 -6,0 -12,6.000003 -12,12.000003 0,0 0,12 0,12 0,6 6,12 12,12 0,0 94.5,0 94.5,0 6,0 12,-6 12,-12 0,0 0,-12 0,-12 0,-6 -6,-12.000003 -12,-12.000003"
       id="path29-1"
       style="fill:#ffffff;fill-opacity:1" />
    <text
       text-anchor="middle"
       x="464.94449"
       y="-83.811523"
       font-family="sans"
       font-size="10px"
       id="text31-3">get_unit_frequencies</text>
    <g
       id="edge5-3"
       class="edge"
       transform="translate(342.94449,3.6884734)">
      <title
         id="title34-5">1-&gt;4</title>
      <path
         fill="none"
         stroke="#808080"
         stroke-width="2"
         d="m 179.213,-143.697 c -9.387,8.647 -20.897,19.248 -31.126,28.67"
         id="path36-3"
         style="stroke:#000000;stroke-opacity:1" />
      <polygon
         fill="#808080"
         stroke="#808080"
         points="145.555,-117.454 150.297,-112.305 140.57,-108.104 "
         id="polygon38-8"
         style="fill:#000000;fill-opacity:1;stroke:#000000;stroke-opacity:1" />
    </g>
    <path
       fill="none"
       stroke="#afd856"
       stroke-width="2"
       stroke-dasharray="5, 2"
       d="m 603.19449,-248.31153 c 0,0 -124.5,0 -124.5,0 -6,0 -12,6 -12,12 0,0 0,12 0,12 0,6 6,12 12,12 0,0 124.5,0 124.5,0 6,0 12,-6 12,-12 0,0 0,-12 0,-12 0,-6 -6,-12 -12,-12"
       id="path43-7"
       style="fill:#ffffff;fill-opacity:1" />
    <text
       text-anchor="middle"
       x="540.94452"
       y="-227.81152"
       font-family="sans"
       font-size="10px"
       id="text45-9">download_wikipedia_dump</text>
    <g
       id="g2153">
      <path
         fill="none"
         stroke="#808080"
         stroke-width="2"
         d="m 540.94449,-212.00853 c 0,7.714 0,16.985 0,25.585"
         id="path50-3"
         style="stroke:#000000;stroke-opacity:1" />
      <polygon
         fill="#808080"
         stroke="#808080"
         points="198,-180.104 194.5,-190.104 201.5,-190.104 "
         id="polygon52-6"
         style="fill:#000000;fill-opacity:1;stroke:#000000;stroke-opacity:1"
         transform="translate(342.94449,3.6884734)" />
    </g>
    <g
       id="g2144"
       transform="rotate(90,412.60236,26.242405)">
      <path
         fill="none"
         stroke="#808080"
         stroke-width="2"
         d="m 229.09921,-190.48184 v 13.20405"
         id="path50-3-1"
         style="stroke:#000000;stroke-opacity:1"
         sodipodi:nodetypes="cc" />
      <polygon
         fill="#808080"
         stroke="#808080"
         points="198,-180.104 194.5,-190.104 201.5,-190.104 "
         id="polygon52-6-8"
         style="fill:#000000;fill-opacity:1;stroke:#000000;stroke-opacity:1"
         transform="translate(31.099206,12.834207)" />
    </g>
    <path
       fill="none"
       stroke="#56a9d8"
       stroke-width="2"
       stroke-dasharray="5, 2"
       d="m 422.94449,-176.31153 c 0,0 -68,0 -68,0 -6,0 -12,6 -12,12 0,0 0,12 0,12 0,6 6,12 12,12 0,0 68,0 68,0 6,0 12,-6 12,-12 0,0 0,-12 0,-12 0,-6 -6,-12 -12,-12"
       id="path57-8"
       style="fill:#ffffff;fill-opacity:1" />
    <text
       text-anchor="middle"
       x="388.94449"
       y="-155.81152"
       font-family="sans"
       font-size="10px"
       id="text59-7">query_wikidata</text>
    <g
       id="edge2-4"
       class="edge"
       transform="translate(342.94449,3.6884734)">
      <title
         id="title62-5">3-&gt;0</title>
      <path
         fill="none"
         stroke="#808080"
         stroke-width="2"
         d="M 43.4013,-143.778 C 41.4211,-124.953 40.8035,-94.4778 53,-72 c 6.4869,11.9552 16.9474,22.0574 27.7834,30.1311"
         id="path64-3"
         style="stroke:#000000;stroke-opacity:1" />
      <polygon
         fill="#808080"
         stroke="#808080"
         points="78.876,-38.9322 82.8743,-44.678 89.0834,-36.0932 "
         id="polygon66-2"
         style="fill:#000000;fill-opacity:1;stroke:#000000;stroke-opacity:1" />
    </g>
    <g
       id="edge6"
       class="edge"
       transform="translate(342.94449,3.6884734)">
      <title
         id="title69-9">3-&gt;4</title>
      <path
         fill="none"
         stroke="#808080"
         stroke-width="2"
         d="m 64.7865,-143.697 c 9.3875,8.647 20.8979,19.248 31.127,28.67"
         id="path71-3"
         style="stroke:#000000;stroke-opacity:1" />
      <polygon
         fill="#808080"
         stroke="#808080"
         points="93.7029,-112.305 98.4453,-117.454 103.43,-108.104 "
         id="polygon73-5"
         style="fill:#000000;fill-opacity:1;stroke:#000000;stroke-opacity:1" />
    </g>
    <g
       id="edge3-4"
       class="edge"
       transform="translate(342.94449,3.6884734)">
      <title
         id="title76">4-&gt;0</title>
      <path
         fill="none"
         stroke="#808080"
         stroke-width="2"
         d="m 122,-71.6966 c 0,7.7139 0,16.9841 0,25.5842"
         id="path78"
         style="stroke:#000000;stroke-opacity:1" />
      <polygon
         fill="#808080"
         stroke="#808080"
         points="118.5,-46.1044 125.5,-46.1043 122,-36.1043 "
         id="polygon80"
         style="fill:#000000;fill-opacity:1;stroke:#000000;stroke-opacity:1" />
    </g>
  </g>
</svg>
